HIERARCHY
ROOT Hips
{
	OFFSET -0.179506 -22.333345 2.821913
	CHANNELS 6 Xposition Yposition Zposition Zrotation Yrotation Xrotation 
	JOINT LeftUpLeg
	{
		OFFSET 6.951974 -9.140623 -0.681533
		CHANNELS 3 Zrotation Yrotation Xrotation
		JOINT LeftLeg
		{
			OFFSET 3.427654 -37.519855 -0.449580
			CHANNELS 3 Zrotation Yrotation Xrotation
			JOINT LeftFoot
			{
				OFFSET -1.359570 -39.796059 -4.369333
				CHANNELS 3 Zrotation Yrotation Xrotation
				JOINT LeftToe
				{
					OFFSET 2.635814 -5.579078 11.928840
					CHANNELS 3 Zrotation Yrotation Xrotation
					End Site
					{
						OFFSET 0.000000 0.000000 0.000000
					}
				}
			}
		}
	}
	JOINT RightUpLeg
	{
		OFFSET -6.767048 -9.052170 -0.431982
		CHANNELS 3 Zrotation Yrotation Xrotation
		JOINT RightLeg
		{
			OFFSET -3.829005 -38.256897 -0.885003
			CHANNELS 3 Zrotation Yrotation Xrotation
			JOINT RightFoot
			{
				OFFSET 1.577377 -39.841461 -4.231180
				CHANNELS 3 Zrotation Yrotation Xrotation
				JOINT RightToe
				{
					OFFSET -2.537174 -4.814398 12.334795
					CHANNELS 3 Zrotation Yrotation Xrotation
					End Site
					{
						OFFSET 0.000000 0.000000 0.000000
					}
				}
			}
		}
	}
	JOINT Spine
	{
		OFFSET -0.253288 10.896323 -2.669631
		CHANNELS 3 Zrotation Yrotation Xrotation
		JOINT Spine1
		{
			OFFSET 0.548704 13.518043 0.109247
			CHANNELS 3 Zrotation Yrotation Xrotation
			JOINT Spine2
			{
				OFFSET 0.145701 5.292222 2.542457
				CHANNELS 3 Zrotation Yrotation Xrotation
				JOINT Neck
				{
					OFFSET -0.277840 21.387037 -4.285703
					CHANNELS 3 Zrotation Yrotation Xrotation
					JOINT Head
					{
						OFFSET 0.515184 6.496960 5.134897
						CHANNELS 3 Zrotation Yrotation Xrotation
						End Site
						{
							OFFSET 0.000000 0.000000 0.000000
						}
					}
				}
				JOINT LeftShoulder
				{
					OFFSET 7.884473 12.174932 -3.408961
					CHANNELS 3 Zrotation Yrotation Xrotation
					JOINT LeftArm
					{
						OFFSET 9.097692 3.046888 -0.886815
						CHANNELS 3 Zrotation Yrotation Xrotation
						JOINT LeftForeArm
						{
							OFFSET 25.961220 -1.277207 -2.745643
							CHANNELS 3 Zrotation Yrotation Xrotation
							JOINT LeftHand
							{
								OFFSET 24.923361 0.898606 -0.117091
								CHANNELS 3 Zrotation Yrotation Xrotation
								End Site
								{
									OFFSET 0.000000 0.000000 0.000000
								}
							}
						}
					}
				}
				JOINT RightShoulder
				{
					OFFSET -8.175920 11.883285 -3.861528
					CHANNELS 3 Zrotation Yrotation Xrotation
					JOINT RightArm
					{
						OFFSET -9.601238 3.255117 -0.914307
						CHANNELS 3 Zrotation Yrotation Xrotation
						JOINT RightForeArm
						{
							OFFSET -25.374195 -1.332924 -2.140099
							CHANNELS 3 Zrotation Yrotation Xrotation
							JOINT RightHand
							{
								OFFSET -25.529810 0.777228 -0.555919
								CHANNELS 3 Zrotation Yrotation Xrotation
								End Site
								{
									OFFSET 0.000000 0.000000 0.000000
								}
							}
						}
					}
				}
			}
		}
	}
}
MOTION
Frames: 16
Frame Time: 0.033333
-15.907434 -21.709187 85.090981 -168.956929 4.873173 77.381218 19.536538 13.806363 8.817140 -4.643149 14.122637 41.503566 0.928692 20.397756 -40.243510 nan nan nan -5.283852 6.770467 -27.627741 6.199982 4.206841 36.885031 3.037563 1.082710 -11.035011 nan nan nan -9.918017 -12.168567 10.897722 5.716374 -14.490742 12.468551 0.677756 -9.368898 -6.208030 -1.522275 -3.153904 17.626482 4.622987 0.394591 26.174887 -27.477409 -19.694830 7.259899 -46.016959 -44.373119 12.949222 106.900423 -58.240854 -82.175589 0.864479 -10.797996 4.294160 20.709882 5.136811 -2.213279 47.664707 3.754961 14.827995 -179.756670 81.698485 -160.140457 7.222909 11.980221 -18.496343 
-15.952929 -21.595575 85.249466 -167.672526 4.915293 77.471950 19.659863 13.597038 8.771644 -5.050017 13.472762 40.969299 1.047752 19.973013 -40.104886 nan nan nan -5.621764 6.196171 -27.143196 6.122887 4.143793 36.639139 3.188962 1.067655 -11.160679 nan nan nan -9.654353 -11.814441 10.754922 6.009437 -14.318450 12.605580 0.779970 -9.181402 -6.193319 -1.331481 -3.525499 17.485451 4.275566 -0.101437 26.371005 -27.212164 -19.476728 7.466101 -46.683963 -45.021837 13.600247 107.735354 -58.902080 -83.383585 0.586879 -10.934199 4.853456 20.821860 5.133169 -2.368271 47.298832 4.213031 14.598951 -176.033877 81.494153 -156.594049 6.699429 11.642989 -18.002429 
-15.992402 -21.505217 85.404587 -166.455376 4.854405 77.644766 19.677591 13.433314 8.661079 -5.476583 12.949319 40.431669 1.117897 19.509405 -39.932809 nan nan nan -6.056474 5.657781 -26.803211 6.035973 4.064674 36.428564 3.430683 1.126288 -11.199457 nan nan nan -9.470875 -11.329565 10.499398 6.269943 -14.185547 12.638309 0.867706 -9.025523 -6.045073 -1.063016 -3.872756 17.434805 3.997035 -0.623504 26.558681 -26.668148 -19.353991 7.479397 -47.541980 -45.449634 14.337004 108.478809 -59.479461 -84.275161 0.314926 -11.271066 4.850869 21.009332 5.227264 -2.662582 46.843908 4.541651 14.532300 -171.724331 81.179177 -152.572048 6.217117 11.360639 -17.749884 
-16.018145 -21.436684 85.537460 -165.297982 4.755890 77.937862 19.575903 13.267375 8.424402 -5.811775 12.527689 39.888034 1.167950 19.029220 -39.714429 nan nan nan -6.553309 5.213067 -26.681143 5.900958 3.838474 36.271556 3.717108 1.115789 -11.118619 nan nan nan -9.230358 -10.863547 10.120459 6.449154 -13.958875 12.633180 0.929974 -8.846455 -5.922234 -0.715174 -4.237963 17.445257 3.730262 -1.155120 26.674549 -26.221207 -19.252015 6.990490 -48.521920 -45.567539 15.356188 108.924575 -60.106298 -84.280149 -0.167915 -11.725148 4.149144 21.184977 5.332325 -2.951352 46.713963 4.765751 14.507508 -165.095152 80.706955 -145.945852 6.422967 11.234353 -17.858227 
-16.032862 -21.345242 85.679352 -164.124618 4.727847 78.198715 19.519958 13.082266 8.212436 -6.078540 11.991336 39.310950 1.247940 18.635222 -39.454620 nan nan nan -6.946776 4.774542 -26.484574 5.775785 3.664958 36.087503 3.908056 1.043122 -11.043040 nan nan nan -8.958719 -10.456850 9.751606 6.663176 -13.649028 12.714860 1.046564 -8.674123 -5.875845 -0.497202 -4.688389 17.401417 3.437497 -1.608306 26.788248 -26.184122 -19.190422 6.740808 -48.962046 -45.726426 16.011042 109.636249 -60.719730 -84.485824 -0.773236 -12.053887 3.658153 21.375542 5.497686 -3.021538 46.587879 5.150041 14.135956 -158.564048 80.093937 -139.094380 6.658208 11.033377 -17.676183 
-16.040388 -21.241100 85.839539 -162.899254 4.695011 78.396913 19.455550 12.936299 8.055213 -6.317625 11.276098 38.714930 1.323781 18.285236 -39.231469 nan nan nan -7.331905 4.312143 -26.196053 5.685492 3.479463 35.916138 4.086014 0.946471 -11.060428 nan nan nan -8.730718 -10.097618 9.483206 6.916490 -13.383540 12.608077 1.156806 -8.544783 -5.656273 -0.446001 -5.024423 17.455894 3.226069 -1.993374 26.730324 -26.018966 -18.972640 6.640851 -49.396951 -45.975931 16.405032 110.650646 -61.398552 -85.200926 -1.309248 -12.293113 3.540694 21.391936 5.615980 -3.000930 46.478560 5.838883 13.497983 -154.447758 79.655245 -134.640044 6.625304 10.894773 -17.030628 
-16.045166 -21.119568 86.019867 -161.654826 4.606789 78.534883 19.345664 12.770033 7.998770 -6.452259 10.650708 38.078795 1.531972 17.777964 -39.014570 nan nan nan -7.773240 3.758056 -25.831906 5.594376 3.205879 35.736533 4.346578 0.981731 -11.031236 nan nan nan -8.433293 -10.023406 9.455127 7.019666 -13.329983 12.269603 1.069790 -8.078168 -5.548985 -0.271789 -5.109658 17.761252 3.071091 -2.361121 26.583455 -25.454757 -18.364064 6.108965 -50.535508 -45.966461 17.381766 111.536703 -62.101918 -85.649778 -1.629519 -12.672670 2.983506 21.325531 5.583615 -2.903444 46.597352 6.630052 13.290050 -150.195299 79.279468 -129.980424 6.473904 10.807724 -16.547577 
-16.046072 -21.001101 86.213165 -160.373262 4.622952 78.687389 19.371334 12.503288 7.865340 -6.673625 10.063857 37.510647 1.757579 17.302664 -38.785902 nan nan nan -8.144441 3.169395 -25.357358 5.465370 2.773373 35.352172 4.543805 1.086024 -10.924176 nan nan nan -8.249150 -9.536520 9.126897 7.292370 -13.120386 12.465341 1.310688 -7.884240 -5.521255 -0.079676 -5.477749 18.014512 2.853488 -2.756887 26.174805 -25.197768 -18.491978 5.880456 -51.245092 -45.950156 17.992745 112.317864 -62.517311 -86.315530 -2.097790 -12.983484 2.812885 21.270833 5.762860 -3.211425 46.171897 6.902998 12.781108 -146.366962 78.619356 -125.601257 7.158066 10.543509 -15.234005 
-16.044798 -20.914631 86.413864 -159.029639 4.628298 78.847064 19.330894 12.274740 7.646413 -6.838899 9.356356 37.012702 1.827247 16.883051 -38.527854 nan nan nan -8.552230 2.583918 -24.806817 5.385228 2.403794 34.899913 4.690292 1.077278 -10.816077 nan nan nan -7.939519 -9.099373 8.952072 7.508913 -12.932059 12.422256 1.441480 -7.729896 -5.533830 0.055686 -5.871989 18.184561 2.681409 -3.059671 25.977521 -25.073488 -18.419668 5.827276 -51.378363 -46.018503 18.446709 113.136430 -63.055124 -87.251496 -1.804093 -13.292736 2.249074 21.215998 5.900314 -3.461051 45.894156 7.199912 12.546915 -143.484226 78.045693 -123.185964 6.212696 10.596634 -16.131378 
-16.065655 -20.837406 86.616188 -157.697622 4.539593 78.924351 19.158275 12.007315 7.636472 -6.979733 8.628659 36.291823 1.987584 16.551097 -38.182130 nan nan nan -9.079992 1.907229 -24.166131 5.404641 2.104706 34.511264 4.930640 1.140887 -10.726221 nan nan nan -7.679755 -8.661181 8.889864 7.699585 -12.810120 12.336882 1.500658 -7.535141 -5.587882 0.167220 -6.202278 18.198737 2.496230 -3.324974 26.025097 -24.808410 -18.197541 5.877566 -51.439895 -46.225909 18.648731 114.057194 -63.631291 -88.265390 -1.769263 -13.737230 1.582986 21.261977 5.926627 -3.530344 45.597012 7.865939 12.046459 -140.377376 77.459426 -120.196696 6.017896 10.486342 -15.751576 
-16.076641 -20.744076 86.815460 -156.381086 4.421030 79.026795 18.978422 11.752721 7.615064 -7.126095 7.932054 35.564873 2.047770 16.199124 -37.799984 nan nan nan -9.621191 1.139564 -23.549373 5.406251 1.701446 34.098082 5.219933 1.213225 -10.598301 nan nan nan -7.470395 -8.269898 8.760782 7.868825 -12.759732 12.282252 1.553189 -7.290047 -5.604246 0.297679 -6.454066 18.134459 2.305372 -3.667589 26.188869 -24.429138 -17.927988 5.843164 -51.553021 -46.346148 18.787532 115.078220 -64.239093 -89.020592 -1.554125 -14.174220 0.920917 21.296310 6.069669 -3.491619 45.242658 8.524624 11.681705 -137.248262 76.743763 -117.301841 5.494555 10.417262 -15.591954 
-16.035477 -20.650585 87.007080 -155.078460 4.361582 79.265359 18.874362 11.498714 7.364404 -7.252584 7.339479 34.973330 1.935309 15.882215 -37.412735 nan nan nan -10.073130 0.465354 -23.090981 5.352413 1.206963 33.676391 5.461815 1.217718 -10.428955 nan nan nan -7.242474 -7.918281 8.477959 8.048340 -12.625447 12.154114 1.622025 -7.074090 -5.455200 0.452982 -6.787059 18.042079 2.152698 -3.985730 26.362363 -24.055221 -17.685605 5.678257 -51.717418 -46.433494 18.968269 116.135344 -64.820595 -89.748941 -1.428745 -14.464621 0.322794 21.285329 6.121681 -3.572016 44.787168 9.125238 11.137920 -135.233947 76.197560 -115.452976 5.076712 10.280347 -15.068094 
-15.966917 -20.536398 87.207550 -153.837456 4.334666 79.497841 18.858059 11.292166 7.151874 -7.379102 6.762552 34.335835 1.950666 15.484530 -36.997128 nan nan nan -10.425303 -0.080284 -22.607705 5.287920 0.794568 33.192132 5.617764 1.169308 -10.267596 nan nan nan -7.057839 -7.551124 8.188840 8.262431 -12.424041 12.085874 1.737795 -6.876043 -5.359160 0.554055 -7.139090 18.067255 2.080021 -4.298610 26.329575 -23.639474 -17.444410 5.523235 -52.028643 -46.507059 19.184204 117.233572 -65.256534 -90.742653 -1.837278 -14.832341 -0.214355 21.198720 6.014480 -3.870501 44.391907 9.747689 10.404494 -133.790100 75.900189 -114.169390 5.295854 10.188565 -14.282078 
-15.907785 -20.424547 87.415222 -152.659092 4.283594 79.732569 18.824697 11.088822 6.999282 -7.563745 6.192480 33.596081 2.091366 15.013265 -36.529245 nan nan nan -10.755119 -0.608358 -22.159289 5.248259 0.437652 32.697538 5.715919 1.074728 -10.068564 nan nan nan -6.868281 -7.131762 7.819192 8.450244 -12.245834 12.249651 1.856102 -6.678492 -5.501958 0.643510 -7.454558 18.217919 1.996709 -4.581720 26.154303 -23.325122 -17.274531 5.514934 -52.266476 -46.550530 19.360523 118.354174 -65.453043 -92.026238 -2.799016 -14.947461 -0.381246 21.148502 6.058920 -4.134393 43.963056 10.247124 9.762949 -131.785761 75.326851 -112.464096 6.043091 10.121510 -13.707765 
-15.865818 -20.323927 87.618469 -151.464550 4.200181 79.984502 18.707413 10.802694 6.862169 -7.777121 5.567881 32.799723 1.994621 14.690577 -36.043814 nan nan nan -11.146642 -1.193350 -21.710562 5.280051 0.062154 32.203185 5.864209 0.983231 -9.877905 nan nan nan -6.629614 -6.759931 7.333784 8.540659 -12.157862 12.438043 1.875652 -6.415479 -5.551345 0.824048 -7.742421 18.297868 1.908950 -4.797114 26.042960 -23.090325 -17.163148 5.455344 -52.289827 -46.560008 19.515047 119.384571 -65.714911 -93.205751 -3.202128 -14.864386 -0.380099 21.204689 6.322832 -4.207671 43.373985 10.671294 9.186408 -129.368560 74.442360 -110.062332 6.531510 9.870501 -12.924769 
-15.832554 -20.198704 87.814857 -150.240104 4.094032 80.182975 18.586066 10.508861 6.808943 -7.948196 4.878850 31.970815 1.868910 14.446620 -35.571110 nan nan nan -11.544273 -1.788348 -21.112564 5.271161 -0.335578 31.644125 5.960331 0.848669 -9.782884 nan nan nan -6.445649 -6.442297 6.904051 8.614673 -12.056471 12.560461 1.859175 -6.133288 -5.491579 1.031652 -8.022638 18.260812 1.886569 -4.972759 26.021370 -22.734623 -16.914155 5.322531 -52.364920 -46.665049 19.748222 120.370872 -66.191487 -94.081807 -2.610085 -14.969714 -0.488772 21.212478 6.382777 -4.265064 42.880864 11.279661 8.605551 -127.492958 73.665577 -108.055929 6.223281 9.628707 -12.125330 
